Coordinates
version=1
nRows=17
nColumns=24
inDegrees=yes

Units are S.I. units (second, meters, Newtons, ...)
Angles are in degrees.

endheader
time	pelvis_tilt	pelvis_list	pelvis_rotation	pelvis_tx	pelvis_ty	pelvis_tz	hip_flexion_r	hip_adduction_r	hip_rotation_r	knee_angle_r	ankle_angle_r	subtalar_angle_r	mtp_angle_r	hip_flexion_l	hip_adduction_l	hip_rotation_l	knee_angle_l	ankle_angle_l	subtalar_angle_l	mtp_angle_l	lumbar_extension	lumbar_bending	lumbar_rotation
      1.04583333	      4.65205603	     -3.18078401	     -1.12596190	     -0.15835446	      1.05931051	      0.36376897	    -19.71344139	      8.03273393	     -0.38121151	     -3.76697916	      7.87666255	    -10.50330599	     -1.25482448	     15.81759352	     -1.09651568	     -3.14952273	      0.54904192	      4.22380467	     -0.00858517	     -2.61664291	     -2.26679599	      6.59613350	      0.60653962
      1.05000000	      4.59369357	     -3.21106723	     -1.13683931	     -0.15277797	      1.05860590	      0.36347384	    -19.76699728	      8.03326956	     -0.36816195	     -4.19186739	      7.88705668	    -10.53861008	     -1.25298581	     15.73092694	     -1.06095372	     -3.15216339	      0.85988563	      4.15462061	      0.11076695	     -2.61588192	     -2.24545846	      6.59165427	      0.59726044
      1.05416667	      4.57555772	     -3.17185504	     -1.11929542	     -0.14696743	      1.05798428	      0.36325016	    -19.89310263	      7.97651170	     -0.29925546	     -4.58556939	      8.04588631	    -10.57830531	     -1.24186833	     15.60593697	     -0.95393419	     -3.34908186	      1.09971385	      3.70192221	      0.47761404	     -2.61148359	     -2.13850546	      6.53580507	      0.58944262
      1.05833333	      4.54597562	     -3.20647667	     -1.12299478	     -0.14140727	      1.05738764	      0.36300694	    -19.94269417	      7.98761833	     -0.26501341	     -5.07609984	      8.03591993	    -10.60627781	     -1.23888020	     15.50986094	     -0.93164024	     -3.35373664	      1.23273806	      3.62416642	      0.58118537	     -2.60726430	     -2.10340706	      6.50473483	      0.58539139
      1.06250000	      4.52105134	     -3.20583512	     -1.13473992	     -0.13570786	      1.05683746	      0.36282040	    -19.99715285	      7.96192029	     -0.22748074	     -5.58045446	      8.05035012	    -10.64711891	     -1.23451347	     15.39920807	     -0.87887082	     -3.38062365	      1.31027949	      3.43672468	      0.71206229	     -2.60209318	     -2.04059578	      6.46745346	      0.58228336
      1.06666667	      4.48156106	     -3.14734151	     -1.12107741	     -0.12979134	      1.05631511	      0.36265663	    -20.04975264	      7.88597567	     -0.17148001	     -6.07291538	      8.13556987	    -10.70245065	     -1.21936982	     15.31703793	     -0.76338944	     -3.60794530	      1.31612047	      2.85766356	      0.96459521	     -2.58293922	     -1.97487257	      6.36847403	      0.57639278
      1.07083333	      4.45379378	     -3.13898339	     -1.13612288	     -0.12405214	      1.05585023	      0.36252133	    -20.06718167	      7.85127095	     -0.11325676	     -6.64274151	      8.11548077	    -10.72204596	     -1.20455882	     15.22815964	     -0.71358224	     -3.69283194	      1.24356881	      2.57579095	      1.09072522	     -2.55479843	     -1.92756649	      6.30346068	      0.57201093
      1.07500000	      4.45556825	     -3.13698898	     -1.10165329	     -0.11834416	      1.05543658	      0.36234705	    -20.10458942	      7.84186230	     -0.06542332	     -7.22444073	      8.07742205	    -10.74162323	     -1.19941758	     15.12299481	     -0.66564811	     -3.67681532	      1.08900809	      2.44440389	      1.13001877	     -2.54519042	     -1.84936713	      6.24108321	      0.58052790
      1.07916667	      4.39235929	     -3.07414629	     -1.10882886	     -0.11238821	      1.05502270	      0.36218955	    -20.05445423	      7.74660519	     -0.12433351	     -7.86185260	      8.03292771	    -10.76126777	     -1.17957220	     15.06655517	     -0.56086562	     -3.79275989	      0.93200589	      1.87974313	      1.18359359	     -2.51183519	     -1.79789619	      6.12007549	      0.58361173
      1.08333333	      4.41522090	     -3.06211367	     -1.07541161	     -0.10664621	      1.05473518	      0.36204097	    -20.07760462	      7.72190079	     -0.08100367	     -8.51533767	      7.97024817	    -10.75919986	     -1.17298668	     14.94032197	     -0.51556065	     -3.74815032	      0.68420747	      1.73302126	      1.19401192	     -2.50036683	     -1.70330940	      6.04778891	      0.59381004
      1.08750000	      4.37035437	     -2.98804569	     -1.04565821	     -0.10066162	      1.05443116	      0.36181522	    -20.00256456	      7.61845162	     -0.24727121	     -9.22396963	      7.83024364	    -10.63912334	     -1.13581661	     14.87893994	     -0.39672718	     -3.84249439	      0.43829254	      1.01135582	      1.08637635	     -2.44194784	     -1.62580038	      5.90274345	      0.59705794
      1.09166667	      4.29629126	     -2.92473421	     -1.01878445	     -0.09469647	      1.05413268	      0.36145260	    -19.86736623	      7.50609971	     -0.42610190	     -9.99579902	      7.82842228	    -10.21130030	     -0.96665144	     14.80958339	     -0.27895365	     -3.52247608	      0.22179783	      0.43522059	      0.42670035	     -2.15189957	     -1.46438484	      5.79306221	      0.54712346
      1.09583333	      4.28403968	     -2.84764296	     -1.00090489	     -0.08875623	      1.05397834	      0.36123622	    -19.77666328	      7.38683409	     -0.59932150	    -10.79554272	      7.66202417	    -10.21174553	     -0.94048799	     14.70870058	     -0.17167370	     -3.53454210	     -0.09738917	      0.16479507	      0.40134786	     -2.10988935	     -1.45466094	      5.68057320	      0.55201057
      1.10000000	      4.33733547	     -2.80332332	     -0.97365539	     -0.08297646	      1.05395862	      0.36110063	    -19.73881457	      7.31084664	     -0.63258246	    -11.61880616	      7.53362874	    -10.18763030	     -0.92973649	     14.54810916	     -0.11725438	     -3.46789558	     -0.45176143	     -0.00256578	      0.39919699	     -2.09529945	     -1.36710930	      5.56631416	      0.56644051
      1.10416667	      4.29248385	     -2.63803225	     -0.87699775	     -0.07669733	      1.05385520	      0.36057375	    -19.58066600	      7.08663319	     -1.13247255	    -12.46960721	      7.12681285	     -9.66435945	     -0.81946843	     14.45214803	      0.11950282	     -3.35556684	     -0.72387042	     -0.92740680	      0.02857085	     -1.96423360	     -1.22091150	      5.37304146	      0.54983577
      1.10833333	      4.34206723	     -2.58463599	     -0.86977111	     -0.07094780	      1.05395762	      0.36041375	    -19.47337469	      6.97949692	     -1.21857367	    -13.41194037	      7.01030373	     -9.64685229	     -0.80508643	     14.29567928	      0.17218825	     -3.29536271	     -1.11266873	     -1.03260094	     -0.01735767	     -1.94721365	     -1.20072623	      5.23615475	      0.55671653
      1.11250000	      4.29012769	     -2.38681523	     -0.73567616	     -0.06462644	      1.05394859	      0.35966798	    -19.24763361	      6.69924511	     -1.88464161	    -14.36837278	      6.54063162	     -8.92383679	     -0.64657087	     14.20175154	      0.46055248	     -3.07161587	     -1.40714079	     -1.84289958	     -0.61567160	     -1.79008123	     -1.07137678	      5.01553665	      0.50986073
